<svg width="20" height="17" viewBox="0 0 20 17" fill="none" xmlns="http://www.w3.org/2000/svg">
<g clip-path="url(#clip0_436_121)">
<path d="M2.01294 2.67651H18.1053C19.0515 2.67651 19.8213 3.34679 19.8213 4.17065V12.8294C19.8213 13.6533 19.0515 14.3236 18.1053 14.3236H2.01294C1.06673 14.3236 0.296928 13.6533 0.296928 12.8294V4.17065C0.296928 3.34679 1.06673 2.67651 2.01294 2.67651ZM2.23689 3.67261L2.46593 3.83866L9.37827 8.85037C9.7728 9.13638 10.3455 9.13638 10.7399 8.85037L17.6523 3.83866L17.8813 3.67261H2.23689ZM18.6773 4.39172L13.0453 8.47514L18.6773 11.7388V4.39172ZM2.01294 13.3275H18.1053C18.3817 13.3275 18.6128 13.1559 18.6658 12.9287L12.128 9.14017L11.472 9.61583C11.0626 9.9126 10.5608 10.061 10.0591 10.061C9.55731 10.061 9.05555 9.9126 8.64619 9.61583L7.99014 9.14017L1.45237 12.9286C1.50538 13.1559 1.73655 13.3275 2.01294 13.3275ZM1.44093 11.7388L7.07295 8.47517L1.44093 4.39172V11.7388Z" fill="#000842"/>
</g>
<defs>
<clipPath id="clip0_436_121">
<rect width="19.5244" height="17" fill="white" transform="matrix(-1 0 0 1 19.8213 0)"/>
</clipPath>
</defs>
</svg>
