<svg width="20" height="17" viewBox="0 0 20 17" fill="none" xmlns="http://www.w3.org/2000/svg">
<path d="M14.9341 7.2296V4.53742C14.9424 3.31927 14.3836 2.14798 13.3861 1.29383C12.4217 0.457706 11.1592 0 9.82227 0C9.80158 0 9.77674 0 9.75605 0C6.90417 0.00360399 4.58625 2.03625 4.58625 4.53742V7.2296C3.51007 7.34132 2.72363 8.12699 2.72363 9.07844V15.1259C2.72363 16.1531 3.66736 17 4.84702 17H14.6775C15.8571 17 16.8009 16.1531 16.8009 15.1259V9.07844C16.7967 8.13059 16.0103 7.34132 14.9341 7.2296ZM5.40994 4.53742H5.41408C5.41408 2.43269 7.36362 0.709985 9.76018 0.709985H9.76432C10.9026 0.706381 11.9953 1.09922 12.8025 1.79839C13.6427 2.52279 14.1104 3.51028 14.1022 4.53742V7.2332H13.1915V4.53742C13.1998 3.71931 12.8273 2.93364 12.1609 2.35701C11.5317 1.8092 10.6791 1.49926 9.78916 1.49926H9.76432C7.86032 1.49926 6.32055 2.86156 6.32055 4.53381V7.2332H5.40994V4.53742ZM12.3678 4.53742V7.2332H7.15252V4.53742C7.15252 3.26161 8.31976 2.22366 9.76846 2.22366H9.7933C10.4638 2.22366 11.1095 2.45792 11.5855 2.87238C12.0905 3.31206 12.3761 3.91393 12.3678 4.53742ZM16.0103 15.1367C16.0103 15.7674 15.4225 16.2792 14.6982 16.2792H4.86357C4.13922 16.2792 3.55146 15.7674 3.55146 15.1367V9.09646C3.55146 8.46576 4.13922 7.954 4.86357 7.954H14.6982C15.4225 7.954 16.0103 8.46576 16.0103 9.09646V15.1367Z" fill="#000842"/>
<path d="M11.1922 11.8933C11.0101 11.3347 10.4265 10.9526 9.7601 10.9526C8.93641 10.9526 8.26587 11.5329 8.26587 12.2537C8.26587 12.8339 8.70462 13.3421 9.34619 13.5007V14.5098C9.34619 14.708 9.53245 14.8702 9.7601 14.8702C9.98776 14.8702 10.174 14.708 10.174 14.5098V13.5007C10.9646 13.3024 11.424 12.5816 11.1922 11.8933ZM9.7601 12.8303C9.39172 12.8303 9.0937 12.5708 9.0937 12.2501C9.0937 11.9293 9.39172 11.6698 9.7601 11.6698C10.1285 11.6698 10.4265 11.9293 10.4265 12.2501C10.4265 12.5708 10.1285 12.8303 9.7601 12.8303Z" fill="#000842"/>
</svg>
