<svg width="19" height="16" viewBox="0 0 19 16" fill="none" xmlns="http://www.w3.org/2000/svg">
<path d="M9.26152 7.70726C10.505 7.70726 11.5817 7.3275 12.4616 6.57823C13.3413 5.82909 13.7874 4.91247 13.7874 3.85351C13.7874 2.79492 13.3415 1.87817 12.4615 1.12878C11.5815 0.37976 10.5049 0 9.26152 0C8.01786 0 6.94136 0.37976 6.06155 1.1289C5.18174 1.87805 4.7356 2.79479 4.7356 3.85351C4.7356 4.91247 5.18174 5.82921 6.06155 6.57836C6.94164 7.32738 8.01829 7.70726 9.26152 7.70726ZM6.84029 1.79187C7.51538 1.21704 8.30731 0.93762 9.26152 0.93762C10.2156 0.93762 11.0077 1.21704 11.6829 1.79187C12.358 2.36682 12.6863 3.04125 12.6863 3.85351C12.6863 4.66601 12.358 5.34032 11.6829 5.91527C11.0077 6.49022 10.2156 6.76964 9.26152 6.76964C8.30759 6.76964 7.51566 6.4901 6.84029 5.91527C6.16505 5.34044 5.83676 4.66601 5.83676 3.85351C5.83676 3.04125 6.16505 2.36682 6.84029 1.79187Z" fill="black"/>
<path d="M17.1807 12.3031C17.1553 11.9913 17.104 11.6512 17.0284 11.2921C16.9522 10.9303 16.854 10.5883 16.7364 10.2756C16.6148 9.95251 16.4498 9.63342 16.2455 9.32763C16.0338 9.01025 15.7849 8.73388 15.5056 8.50647C15.2136 8.26855 14.8561 8.07727 14.4426 7.93774C14.0306 7.79895 13.574 7.72864 13.0856 7.72864C12.8937 7.72864 12.7082 7.79565 12.35 7.99426C12.1295 8.1167 11.8716 8.2583 11.5837 8.41492C11.3375 8.54846 11.0041 8.67358 10.5922 8.78686C10.1904 8.89758 9.78236 8.95373 9.37952 8.95373C8.97696 8.95373 8.56895 8.89758 8.16682 8.78686C7.75537 8.6737 7.42177 8.54858 7.17605 8.41504C6.8909 8.25989 6.63285 8.11829 6.40906 7.99414C6.05109 7.79553 5.86558 7.72852 5.67376 7.72852C5.18518 7.72852 4.72872 7.79895 4.31684 7.93787C3.90367 8.07715 3.54599 8.26843 3.25367 8.50659C2.9744 8.73413 2.72553 9.01037 2.51393 9.32763C2.30992 9.63342 2.14477 9.95239 2.0232 10.2758C1.90579 10.5884 1.80758 10.9303 1.73131 11.2921C1.65562 11.6507 1.60444 11.991 1.57906 12.3035C1.55412 12.609 1.5415 12.927 1.5415 13.2483C1.5415 14.0835 1.85332 14.7596 2.46819 15.2583C3.07547 15.7504 3.87887 15.9999 4.85617 15.9999H13.904C14.881 15.9999 15.6844 15.7504 16.2918 15.2583C16.9069 14.76 17.2187 14.0836 17.2187 13.2482C17.2185 12.9258 17.2058 12.6078 17.1807 12.3031ZM15.5326 14.579C15.1313 14.9042 14.5986 15.0622 13.9039 15.0622H4.85617C4.16129 15.0622 3.62856 14.9042 3.22744 14.5791C2.83391 14.2601 2.64266 13.8247 2.64266 13.2483C2.64266 12.9485 2.65428 12.6525 2.6775 12.3683C2.70015 12.0895 2.74646 11.7832 2.81513 11.4578C2.88294 11.1363 2.96924 10.8347 3.07189 10.5616C3.17038 10.2998 3.30471 10.0405 3.47129 9.79077C3.63028 9.55273 3.81321 9.34851 4.01507 9.18396C4.20387 9.03003 4.44185 8.90405 4.72227 8.80957C4.98161 8.72217 5.27306 8.67431 5.58946 8.66711C5.62803 8.68457 5.6967 8.71789 5.80795 8.77966C6.03431 8.90527 6.29523 9.04858 6.58368 9.20544C6.90882 9.38195 7.32772 9.54138 7.8282 9.67895C8.33986 9.81982 8.86169 9.89135 9.37966 9.89135C9.89762 9.89135 10.4196 9.81982 10.931 9.67907C11.4319 9.54126 11.8506 9.38195 12.1762 9.2052C12.4714 9.04455 12.725 8.90539 12.9514 8.77966C13.0626 8.71802 13.1313 8.68457 13.1699 8.66711C13.4864 8.67431 13.7779 8.72217 14.0373 8.80957C14.3176 8.90405 14.5556 9.03015 14.7444 9.18396C14.9462 9.34839 15.1292 9.55261 15.2882 9.79089C15.4549 10.0405 15.5894 10.2999 15.6877 10.5615C15.7905 10.835 15.877 11.1365 15.9446 11.4576C16.0131 11.7837 16.0596 12.0901 16.0822 12.3684V12.3686C16.1056 12.6517 16.1174 12.9476 16.1175 13.2483C16.1174 13.8248 15.9261 14.2601 15.5326 14.579Z" fill="black"/>
</svg>
